<?xml version="1.0" encoding="UTF-8"?>
<svg id="Layer_2" data-name="Layer 2" xmlns="http://www.w3.org/2000/svg" viewBox="0 0 1157.05 759.28">
  <defs>
    <style>
      .cls-1 {
        fill: #231f20;
      }
    </style>
  </defs>
  <g id="Layer_1-2" data-name="Layer 1">
    <g>
      <path class="cls-1" d="M136.67,500.89c-.22.07-.44.12-.64.16.13.23.25.45.36.65.14.27.38.72.5.82.76.16.79.17,1.82-1.54.3-.51.64-1.06,1.04-1.61-1.32.77-2.47,1.34-3.07,1.53Z"/>
      <path class="cls-1" d="M524.51,546.61c1.86-3.47,3.98-7.41,3.36-14.39-.31-3.48-1.34-8.57-2.25-13.05-.27-1.29-.51-2.51-.71-3.57-1.34-6.93-5.26-12.5-11.32-16.1-8.24-4.89-20.45-5.87-31.11-2.47-2.98.95-5.8,2.43-8.54,3.85-2.95,1.54-5.73,3-8.58,3.77-1.2.32-2.39.45-3.66.58-1.86.19-3.97.41-6.19,1.36-7.78,3.31-14.7,7.65-21.4,11.85-3.72,2.33-7.57,4.75-11.45,6.91-1.25.69-2.49,1.25-3.81,1.83-2.96,1.32-6.02,2.68-8.79,5.61-.52.55-.94,1.19-1.34,1.81-.11.17-.25.38-.39.59-.81-.8-2.3-2-4.45-1.38-1.53.43-2.32,1.5-2.74,2.08-.04.06-.08.11-.12.17-2.7,1.59-5.9,2.9-9.29,4.28-4.78,1.95-9.73,3.97-13.52,6.99-.84.66-1.62,1.52-2.37,2.36-.67.73-1.67,1.84-2.17,2.08-.68.33-1.57.39-2.6.46-.85.06-1.81.13-2.8.37-5.75,1.39-8.9,5.48-11.67,9.1-1.29,1.67-2.5,3.25-3.91,4.54-1.09,1-2.32,1.92-3.62,2.89-.34.26-.68.51-1.03.77.1-.64.17-1.26.24-1.86.19-1.64.37-3.19.97-4.24.18-.31.71-.61,1.33-.97.63-.36,1.34-.76,2.03-1.36,4.41-3.85,18.74-28.52,20.94-32.71,1.11-2.12,2.03-4.23,2.91-6.28,1.47-3.41,2.87-6.63,5.04-9.6.56-.77,1.33-1.57,2.14-2.42.96-1.01,1.96-2.05,2.73-3.18,3.9-5.71,5.89-12.16,7.83-18.41,1.96-6.33,3.99-12.88,8.03-18.81,3.66-5.37,7.99-14.86,8.92-21.45.18-1.24.17-2.43.17-3.48,0-.97,0-1.89.13-2.65.21-1.12.92-2.9,1.6-4.61.76-1.91,1.54-3.88,1.99-5.71,2.71-11.2,5.34-31-7.56-37.77l-.64-.34h-5.85l-.74.5c-4.49,3.01-5.57,7.92-6.52,12.26-.42,1.94-.83,3.77-1.49,5.3-.51,1.17-1.42,2.47-2.37,3.85-.84,1.21-1.7,2.45-2.39,3.75-4.16,7.8-7.97,16.35-11.64,24.62-1.52,3.43-3.04,6.82-4.55,10.13-10.49,22.84-24.75,44.72-38.45,65.18-3.55,5.3-6.79,11.22-9.92,16.93-4.4,8.04-8.95,16.35-14.46,23.13-.61.76-1.95,2-3.13,3.1-2.1,1.95-3.31,3.1-3.91,4.16-1.38,2.43-4.96,14.56-5,14.68-.5,1.73-.85,3.4-1.18,5.03-.54,2.63-1.06,5.14-2.2,7.48,2.06-14.1,1.13-26.47-7.37-39.11-3.71-5.51-8.44-8.02-13.01-10.45-2.8-1.48-5.45-2.89-7.96-4.98-.06-.06-.2-.28-.3-.44-.45-.7-1.18-1.87-2.74-2.64-2.27-1.13-8.47-2.48-17.75-4.3l-2.02-.4c-14.62-2.95-28.9-3.13-47.75-.59-11.55,1.56-28.73,9.85-36.92,16.32-13.6,10.73-18.36,33.5-19.49,40.22-.86,5.09-2.28,6.93-4.23,9.47-1.17,1.51-2.49,3.23-3.81,5.77-.41.8-.62,1.58-.78,2.21-.09.32-.21.81-.19.86-.63.25-3.07.53-4.53.7-1.73.19-3.35.38-4.5.66-4.1,1-8,2.85-11.28,5.34-.8.61-1.58,1.4-2.33,2.16-.62.63-1.55,1.58-1.98,1.8-1.79.94-3.88,1.38-6.09,1.85-3.5.74-7.47,1.57-11.26,4.56-.85.67-1.62,1.64-2.23,2.42-.15.19-.28.36-.4.5-.47.16-1.46.25-2.08.3-.93.09-1.9.17-2.8.44-1.96.56-4.06,1.83-6.3,3.17-1.57.94-3.19,1.91-4.46,2.43-3.51,1.42-9.31,2.96-13.14,3-1.55.03-2.78-.06-3.97-.13-1.97-.12-4.01-.25-7.12.09-3.84.41-4.96-.46-7.64-2.57-.78-.61-1.63-1.27-2.62-1.96-.97-.68-1.88-1.18-2.68-1.63-2.28-1.26-2.81-1.56-2.84-4.3-.02-2.96-.4-5.11-.77-7.19-.27-1.52-.52-2.95-.63-4.68-.89-14.65,15.14-34.91,25.74-48.3,1.96-2.48,3.78-4.78,5.36-6.85,1.1-1.45,2.04-3.04,2.96-4.57.91-1.53,1.77-2.98,2.76-4.26,3.59-4.69,8.42-8.55,13.53-12.63,3.44-2.74,6.99-5.58,10.14-8.7,1.83-1.81,3.49-3.87,5.09-5.87,1.69-2.1,3.28-4.08,4.91-5.58,3.12-2.88,9.85-7.05,15.25-10.4,2.27-1.41,4.36-2.71,6.04-3.81.71-.47,2.1-1.28,3.58-2.13.78-.45,1.51-.88,2.18-1.27-.08,1.58.55,3.02,1.79,3.98,1.04.81,2.32,1.01,3.45,1.19.36.06.92.15,1.19.22.07.11.12.23.19.36.59,1.12,1.7,3.2,4.47,3.81,4.88,1.06,6.96-2.4,8.07-4.25.35-.58.68-1.13,1.02-1.52,1.69-1.96,3.89-3.65,6.22-5.43,5.96-4.57,12.71-9.74,11.25-20.72-.51-3.86-2.37-12.78-3.48-16.73-3.16-11.27-18.51-16.67-28.33-16.21-11.25.51-16.28,4.6-22.1,9.33-2.04,1.66-4.15,3.38-6.77,5.18-2.05,1.4-4.07,2.66-6.02,3.87-4.6,2.87-8.95,5.57-13.34,9.92-1.77,1.76-3.3,3.06-4.91,4.43-1.18,1-2.38,2.02-3.7,3.24-1.79,1.64-3.42,3.5-5,5.3-1.83,2.08-3.55,4.04-5.47,5.68-1.16.99-2.38,1.83-3.55,2.63-3.06,2.09-6.22,4.26-8.27,9-.15.33-.27.73-.39,1.19-.32.05-.66.12-.99.25-3.92,1.43-5.3,4.55-6.41,7.07-.47,1.07-.92,2.08-1.51,2.88-1.14,1.54-2.99,3.21-4.77,4.82-1.75,1.58-3.55,3.2-4.98,4.94-2.65,3.2-4.69,7.14-6.65,10.96-1,1.94-1.94,3.77-2.94,5.45-1.97,3.33-4.16,6.8-6.27,10.16-3.62,5.75-7.36,11.69-10.41,17.51-3.72,7.11-3.75,11.06-3.78,16.06-.01,1.79-.03,3.83-.22,6.27-.09,1.07-.35,2.3-.64,3.61-.31,1.42-.63,2.88-.76,4.36-1.17,13.07-1.01,38.91,7.05,52.82.5.87,1.29,1.89,2.12,2.98.68.88,1.81,2.36,2,2.79.3,1.04.37,1.99.44,3.09.14,2.1.31,4.7,2.39,7.9,1.28,1.97,6.46,6.64,9.84,6.64h2.52c-.2,1.06-.1,2.19.6,3.32,1.32,2.12,10.7,4.62,11.77,4.9,8.44,2.22,21.17,3.93,33.88-.52,1.74-.61,3.44-1.39,5.08-2.14,2.22-1.02,4.32-1.98,6.38-2.49,1.27-.31,2.98-.53,4.79-.76,5.74-.73,12.89-1.63,16.09-6.84.64-1.05.98-2.34,1.28-3.49,0-.01,0-.02,0-.03.16.03.31.06.44.08.93.19,1.81.36,2.66.33,5.91-.23,22.8-11.5,24.87-13.02.58-.42,1.5-1.23,2.97-2.5.73-.63,1.72-1.51,2.56-2.21.56,1,1.17,2.32,1.5,3.03.39.84.69,1.5.98,1.97,2.66,4.48,5.01,6.73,7.29,8.91,1.3,1.24,2.64,2.52,4.11,4.29.22.26.45.71.69,1.17.73,1.4,2.24,4.3,5.89,4.01,1.42-.11,2.57-.48,3.58-.81,1.33-.43,2.29-.73,3.82-.49.66.1,1.77.97,2.51,1.54,1.07.84,2,1.56,3.22,1.74,1.61.22,3-.51,4.35-1.24.85-.46,1.82-.98,2.55-1.06,1.8-.21,3.62-.17,5.54-.14,2.81.06,5.73.11,9.07-.55,7.02-1.4,8.58-3.54,10.74-7.21.55-.93,1.16-1.98,2.03-3.17,1.2-1.65,1.65-1.7,3.33-1.86.89-.08,1.99-.19,3.3-.56.84-.23,1.7-.6,2.61-.99,1.01-.43,3.11-1.32,3.66-1.18,0,0,.08.08.17.31.67,1.64-.83,5.92-1.92,9.04-.96,2.72-1.86,5.3-2.09,7.56-.73,6.97.52,19.15,3.55,26.2,1.93,4.49,12.01,9.45,15.57,10.26.97.22,1.82.32,2.57.32,2.9,0,4.36-1.56,5.78-4.21,4.13-7.7,6-16.08,7.8-24.18.64-2.87,1.29-5.83,2.04-8.67,2.95-11.25,7.86-25.22,12.83-30.71.17-.19.74-.38,1.28-.57,1.47-.51,3.69-1.28,5.16-3.92.95-1.72,1.13-3.6,1.26-5.11.07-.79.17-1.86.39-2.27.25-.14.87-.33,1.28-.46.94-.29,2-.61,2.97-1.28.99-.69,1.71-1.51,2.25-2.38-.04,1.26,0,2.52.06,3.76.07,1.65.13,3.2-.05,4.53-.18,1.31-1.15,2.96-2.09,4.55-1.31,2.24-2.8,4.78-2.9,7.59-.04,1.15.23,2.23.47,3.18.16.62.3,1.21.32,1.63.07,2.07-.04,4.1-.15,6.07-.4,7.44-.82,15.14,9.33,20.69,1.99,1.09,8.72,4.57,11.88,3.88,3.67-.81,6.44-5.74,9.95-12.61.74-1.45,1.44-2.82,1.92-3.59,6.8-10.88,16.17-21.31,25.24-31.39,3.4-3.78,6.92-7.69,10.17-11.49,1.22-1.42,2.86-3.57,4.76-6.06,3.52-4.61,8.83-11.58,11.1-13.02.66-.42,1.44-.72,2.25-1.04,2.08-.8,4.89-1.88,6.32-5.58.51.41,1.15.72,1.94.87,1.91.35,3.91-.16,5.76-1.47.52-.37,1.01-.78,1.47-1.23-.03.31-.05.63-.06.96v.33l.08.32c.67,2.95,1.11,5.91,1.54,8.76,1.26,8.43,2.57,17.16,9.79,24.78,1.97,2.08,3.85,3.11,5.75,3.16,2.39.07,3.95-1.43,4.89-2.32.03-.03.06-.06.09-.09.33.2.7.44.99.63,1.7,1.09,3.61,2.33,5.54,2.66,8.45,1.41,18.63-4.51,26.06-8.84l1.24-.72c3.62-2.09,6.78-4.29,9.83-6.41,3.73-2.59,7.25-5.04,11.53-7.3l.81-.42c3.32-1.75,6.75-3.56,9.89-6.2.88-.74,1.7-1.62,2.57-2.56,2.75-2.97,4.22-4.19,5.65-3.57,1.57.67,2.96,2.93,2.94,4.75-.04,2.62-1.74,8.11-3.11,12.51-.9,2.91-1.76,5.67-2.24,7.8-3.55,15.84-6.4,37.36.27,49.93,1.09,2.06,5.08,8.79,10.54,9.06,1.8.09,4.4-.5,6.58-3.8l.23-.35.12-.4c1.08-3.45,2.46-6.83,3.79-10.1,1.79-4.39,3.63-8.92,4.87-13.84.23-.9.31-1.79.39-2.58.09-.96.17-1.78.46-2.38.38-.79,1.9-2.01,3.11-2.99,1.32-1.07,2.69-2.17,3.68-3.43,4-5.03,5.11-12.63,6.09-19.33.44-2.96.84-5.75,1.45-8.11.4-1.55,1.16-3.39,1.9-5.17.97-2.33,1.97-4.73,2.32-6.89.33-2,.37-4.11.41-6.15.03-1.65.07-3.21.25-4.58.15-1.19.56-2.55,1-3.98.49-1.6.99-3.25,1.24-5,.75-5.19.33-10.55-.08-15.74-.36-4.54-.69-8.83-.31-12.99.29-3.19,1.42-5.3,2.73-7.74ZM139.73,499.36c-.4.55-.73,1.1-1.04,1.61-1.03,1.71-1.05,1.7-1.82,1.54-.12-.1-.36-.55-.5-.82-.11-.2-.22-.42-.36-.65.21-.04.42-.09.64-.16.59-.19,1.75-.76,3.07-1.53ZM133.08,491.89s.08.08.12.11c.83.76,1.92,1.77,3.29,2.47-.5.3-.95.54-1.27.68-.14-.12-.3-.28-.42-.4-.53-.52-1.28-1.26-2.33-1.72.26-.37.45-.77.61-1.14ZM237.88,588.92c-6.66,8.85-20.55,13.92-31.71,17.98l-2.8,1.03c-2.09.78-4.52,1.69-6.76,2.31.23-.21.48-.44.75-.68.51-.46,1.56-1.21,2.59-1.93,3.92-2.79,6.34-4.64,6.89-6.97.14-.59.16-1.17.16-1.67.63-.25,1.32-.56,1.91-1,1.61-1.21,2.73-2.8,3.73-4.21.75-1.06,1.46-2.07,2.21-2.68.31-.25.78-.48,1.27-.72.74-.36,1.59-.77,2.37-1.46.42-.38.77-.79,1.06-1.21,2.32,1.9,4.47,1.44,6.94.03.6-.35,1.23-.71,1.98-.98.87-.32,1.71-.59,2.47-.8s1.46-.35,2.05-.42c4.36-.52,6.28-.45,7.13-.27-.21.58-.76,1.72-2.22,3.67ZM451.74,567.26c-1.25,2.74-6.05,4.17-7.23,4.31-3.18.37-5.2-.89-6.11-2.6l-1.7,2.49c-1.85,2.71-5.29,5.51-9.53,5.51-.19,0-.39,0-.59-.02l-2.21-.13-.48-2.16c-.49-2.19.22-3.73.9-4.64,2.04-2.71,6.16-2.96,8.88-3.13l4.16-.27c.01-2.85,2.36-5.52,5.6-6.17.95-.19,2.02-.34,3.08-.34,1.89,0,3.75.46,4.91,1.92.64.81,1.54,2.56.32,5.22ZM478.03,554.24c-1.17,2.28-14.63,8.27-14.76,8.31-1,.28-1.94.36-2.76.36-.38,0-.74-.02-1.06-.04l-2.92-.19.19-2.92c.23-3.74,3.52-5.05,5.48-5.84.62-.25,1.26-.5,1.65-.75.38-.25,1.12-.87,1.84-1.47,2.87-2.41,5.84-4.89,8.69-4.16,1.62.41,3.08,1.62,3.73,3.05.54,1.21.51,2.5-.08,3.65Z"/>
      <g>
        <path class="cls-1" d="M655.49,123.01c1.19,1.25,3.07,3.58,1.85,7.38-.4,1.26-1.43,2.44-2.72,3.93-.85.97-1.9,2.19-2.25,2.91-.45.93-.56,1.84-.69,2.9-.14,1.18-.3,2.52-.97,3.9-.55,1.13-1.33,1.91-1.95,2.55-.62.63-1.07,1.08-1.36,1.83-.16.4-.38,1.57-.57,2.5-.71,3.7-1.39,7.2-4.24,8.06-.56.17-1.18.27-1.8.27-1.41,0-2.85-.49-3.73-1.73-.97-1.35-1.08-2.12,1.07-18.21.6-4.47,1.27-9.49,1.37-11.37-.92.25-2.23.81-2.96,1.12-.98.42-1.92.81-2.76,1.04-2.19.58-6.75,1.81-9.57-.36-1.27-.98-1.98-2.49-1.97-4.25,0-1.25.64-2.29,2.2-4.72.64-.99,1.51-2.35,1.73-2.91,1.44-3.66,2.27-7.48,3.14-11.51,1.19-5.49,2.42-11.18,5.33-16.99,1.53-3.06,4.09-7.24,8.55-8.18.87-.18,1.71-.27,2.52-.27,5.91,0,10.46,4.78,13.55,14.24,2.14,6.56,3.55,19.44-1.77,26.09-.6.75-1.36,1.31-2.03,1.81Z"/>
        <path class="cls-1" d="M626.06,234.53c-.47-1.57-1.33-3.13-2.17-4.63-.54-.98-1.36-2.46-1.45-3.01-.13-.85,0-1.7.16-2.78.24-1.62.54-3.64-.1-6.09-.74-2.82-2.77-4.41-4.4-5.68-1.82-1.42-2.87-2.31-3.18-4.25-.35-2.15.07-2.94.98-4.64.44-.83.95-1.77,1.41-2.98.79-2.08,1.52-4.19,2.23-6.24.58-1.69,1.16-3.38,1.78-5.05l.77-2.07-1.78-1.31c-2.16-1.59-4.57-.33-11.86,3.92-1.64.95-3.88,2.26-4.5,2.48-5.13,1.83-14.25.54-23.07-.72-6.86-.97-13.95-1.98-19.62-1.57-3.82.28-6.98,1.49-9.77,2.56-1.94.74-3.77,1.44-5.46,1.66-1.95.26-4.09.26-6.35.25-2.47,0-5.03,0-7.63.33-1.37.18-3.27.63-5.46,1.15-3.23.77-13.07,3.12-14.58,1.58-1.45-2.04-.41-3.95,2.12-7.54.65-.91,1.32-1.85,1.84-2.79,1.09-1.94,1.99-3.86,2.86-5.71,1.91-4.08,3.55-7.61,6.8-10.57.13-.12.45-.28.75-.43.52-.27,1.18-.6,1.81-1.15,1.59-1.39,2.37-3.91,3.46-7.88.4-1.46.82-2.97,1.18-3.79.92-2.04,2.27-3.94,3.72-5.95,1.27-1.78,2.59-3.62,3.67-5.67,2.01-3.82,3.51-7.91,4.95-11.87.82-2.25,1.67-4.58,2.59-6.76.36-.87,1.08-2.26,1.84-3.73,2.09-4.07,3.48-6.88,3.66-8.77.26-2.61-.74-5.11-1.63-7.32-.49-1.23-1.23-3.08-1.11-3.58.07-.16.36-.58.55-.86.61-.9,1.38-2.04,1.66-3.39.82-3.98-1.99-13.61-4.85-16.62-3.03-3.19-12.13-5.45-15.76-2.07-1.37,1.28-2.19,3.77-3.4,7.71-.4,1.3-.81,2.65-1.09,3.28-.68,1.54-1.62,2.99-2.62,4.52-1.15,1.76-2.34,3.58-3.21,5.69-.64,1.55-1.04,2.94-1.4,4.16-.75,2.59-1.25,4.3-3.6,6.33-.1.09-.41.25-.66.37-.57.29-1.27.66-1.97,1.27-2.21,1.95-5.22,8.4-9.58,18.02-1.4,3.09-2.71,6.01-3.5,7.48-4.67,8.8-8.29,15.9-12.1,23.73-.14.29-.29.62-.45.98-.17.39-.48,1.09-.8,1.67-.2-1.18-.15-3.16-.12-4.35.07-3.04.15-5.9-1.37-7.87-.96-1.25-2.43-1.86-4-2.22,0,0,0-.01,0-.02.37-.87.59-2.29-.49-4.09-.94-1.56-2.97-2.99-10.85-1.72-3.93.64-7.44,2.26-10.83,3.83-1.72.8-3.35,1.55-5.01,2.17-2.86,1.07-5.84,2.06-8.72,3.01-3.68,1.22-7.48,2.48-11.17,3.95-4.58,1.83-9.05,4.12-13.37,6.34-4.6,2.36-8.94,4.59-13.4,6.3l-1.1.43c-1.18.47-2.32.92-3.43,1.21-.34-1.51-1.02-2.85-1.61-4.03-.52-1.03-1.01-2.01-1.11-2.78-.1-.78.04-1.65.2-2.66.23-1.47.5-3.15.07-5.01-.37-1.61-1.48-2.82-2.41-3.7.99-1.74,2.25-4.68,1.54-8.42-.68-3.56-2.19-7.23-3.64-10.79-1.23-2.99-2.5-6.09-3.15-8.87-.28-1.21-.45-2.47-.63-3.81-.23-1.79-.48-3.63-1.03-5.52-1.53-5.27-7.71-16.26-15.04-17.75-2.32-.48-5.74-.24-8.86,3.57-1.27,1.55-1.72,3.22-2.08,4.57-.18.68-.34,1.27-.57,1.77-.38.8-1.15,1.84-1.9,2.84-1.25,1.67-2.55,3.4-3.14,5.34-.22.74-.31,1.55-.38,2.29-1.08.25-2.46.74-3.26,2.13-.63,1.09-.65,2.24-.66,3.16,0,.27-.01.68-.04.8-.94,3.16-9.29,12.16-12.43,15.55l-1.03,1.12c-2.33,2.53-4.8,5.06-7.18,7.51-.48.49-.96.98-1.43,1.47-.4-1.4-.84-3.07-1.2-4.38-1.02-3.78-1.66-6.15-2.11-7.2-2.23-5.2-7.43-6.92-13.55-4.48-4.24,1.69-5.92,5.47-7.27,8.51-.58,1.32-1.14,2.56-1.82,3.52-1.08,1.52-2.07,2.62-3.03,3.69-1.92,2.15-3.74,4.18-5.68,8.6-1.79,4.05-3.71,8.15-5.57,12.11-2.8,5.96-5.69,12.12-8.22,18.35-.41,1-.63,2.06-.82,2.99-.16.8-.35,1.71-.55,2.06-.3.42-1.67,1.58-2.49,2.27-1.17.99-2.27,1.92-3.01,2.77-2.81,3.17-4.64,6.59-6.42,9.9-.93,1.74-1.81,3.38-2.83,5-1.13,1.8-2.48,3.46-3.9,5.23-1.56,1.94-3.17,3.94-4.51,6.16-.79,1.32-1.4,2.86-1.93,4.23-.37.95-.79,2.02-.99,2.36-.11.09-.48.28-.73.4-.57.28-1.28.64-1.92,1.21-3.85,3.41-4.53,7.1-5.13,10.35-.34,1.83-.65,3.55-1.5,5.31-.7,1.45-1.81,2.59-3.1,3.9-1.41,1.44-3.01,3.06-4.11,5.31-1.38,2.84-1.87,5.77-2.34,8.61-.4,2.42-.78,4.71-1.7,6.73l-9.19,20.52v4.25l.41.69c.44.75.92,1.5,1.4,2.25,1.78,2.78,3.46,5.4,3.38,8.16-.02.65-.11,1.26-.21,1.91-.32,2.07-.73,4.64,1.7,7.9,2.96,3.97,7.86,5.78,13.11,4.85,5.42-.96,9.86-4.71,11.3-9.55q.93-3.13,1.4-3.66c.4-.46,1.01-1.16,1.96-2.49,1.96-2.75,2.06-4.36,1.97-6.35-.01-.31-.03-.62-.02-.95.44-.11.94-.28,1.47-.56,2.5-1.35,3.68-3.95,4.63-6.05.4-.89.78-1.73,1.16-2.27.24-.34.6-.68,1.03-1.08.66-.63,1.49-1.41,2.18-2.51.95-1.51,1.5-3.11,2.03-4.66.39-1.14.76-2.22,1.25-3.11,2.19-4.02,4.88-5,8.96-6.46,1.48-.54,3.17-1.14,4.91-1.96,2.45-1.15,4.59-2.52,6.66-3.84,1.4-.9,2.73-1.75,4.14-2.53,1.36-.75,2.72-1.37,4.16-2.02,2.88-1.31,5.86-2.65,8.77-5.13.55-.47,1.12-1.15,1.95-2.14.1-.13.21-.25.3-.37.47.08,1.06.19,1.51.28,1.64.32,3.34.65,4.84.54,4.53-.34,14.13-2.89,19.87-4.41l1.73-.46c3.62-.95,7.28-2.17,10.59-3.52,1.18-.48,2.9-1.39,4.9-2.44,2.07-1.09,5.71-3.01,7.33-3.54.03.13.07.31.1.52.86,5.73,1.49,17.1,1.02,23.17-.15,2.01-.61,3.85-1.1,5.8-.77,3.07-1.56,6.25-1.18,10.16.21,2.1.73,3.93,1.22,5.71.7,2.49,1.31,4.64.96,7.16-.26,1.87-.54,3.29-.78,4.54-.87,4.42-1.16,6.66,1.15,13.68l.24.75c1.24,3.83,3.42,10.58,9.56,10.58.78,0,1.63-.11,2.55-.35,2.83-.74,14.11-7.98,15.79-10.81,2.39-4.03.88-6.8-.11-8.63-.42-.78-.76-1.39-.84-2.07-.21-1.7.24-3.06.8-4.79.37-1.12.78-2.38,1.02-3.83,1.2-7.14.24-13.87-.69-20.38-.72-5.03-1.4-9.79-1.12-14.66.4-7.04,2.27-17.6,3.39-23.92,1.61-9.04,8.92-11.75,17.39-14.89,3.03-1.12,6.16-2.28,9.12-3.78,1.79-.9,3.39-2.04,4.94-3.14,1.72-1.22,3.35-2.38,5-3.05,1.16-.47,2.36-.75,3.64-1.05,1.26-.29,2.57-.6,3.94-1.1,1.69-.62,3.73-1.71,5.92-2.95-.19.19-.38.37-.57.55-.88.87-1.64,1.61-2.48,2.04l-2.37,1.23,1,2.48c1.08,2.69.37,4.52-.73,7.28-.44,1.1-.93,2.35-1.3,3.72-.39,1.43-.68,2.93-.96,4.39-.64,3.35-1.31,6.82-3.17,8.98-.31.36-.85.76-1.42,1.19-1.08.81-2.31,1.73-3.09,3.15-1.95,3.55-2.03,7.99-2.11,11.91-.03,1.51-.06,2.94-.19,4.13-.19,1.72-.49,3.48-.8,5.35-.47,2.77-.95,5.64-1.08,8.47-.39,8.13,1.09,23.45,9.1,29.26,2.44,1.77,6.61,3.42,12.57,1.17l.38-.14,10.35-7.59.31-.27c1.83-1.79,2-4.42,2.13-6.54.03-.5.08-1.19.15-1.64.2-.07.44-.13.62-.19.73-.21,1.56-.44,2.35-.92,2.79-1.66,3.65-4.54,4.34-6.85.33-1.09.64-2.13,1.07-2.8l.31-.47.11-.56c.53-2.66-.93-4.27-1.99-5.13.78-.97,1.37-2.02,1.92-2.98.55-.98,1.07-1.9,1.66-2.49.41-.41.98-.72,1.63-1.08.77-.43,1.64-.91,2.47-1.67.82-.75,1.41-1.65,1.92-2.46.32-.49.68-1.05.89-1.25.13-.1.55-.31.79-.43.88-.44,1.79-.88,2.38-1.84,1.29-2.11.58-9.4.35-10.28-.28-1.06-.82-1.98-1.46-2.81,8.93.76,23.89.59,26.98.41,3.91-.23,8.61-1.05,12.27-2.15,1.66-.5,2.72-.91,3.58-1.25,1.63-.63,2.19-.85,5.53-.83,1.12,0,2.31-.02,3.49-.06,1.94-.05,3.95-.11,5.69.03.58.05,2.51.55,3.78.88,3.55.93,4.62,1.18,5.74.82,1.44-.45,2.48-1.6,2.79-3.08.35-1.67-.31-3.58-1.65-4.73-.76-.66-1.86-1.23-3.29-1.78,1.2-.74,1.98-1.79,2.54-2.54.94-1.26,1.05-1.37,2.04-1.24,1.12.15,6.05,1.5,7.68,2.09-.08,0-.17,0-.25,0-1.53,0-3.08.49-3.93,1.85-.95,1.51-.98,3.23-.09,4.6,1.06,1.64,3.14,2.31,4.93,2.31.32,0,.63-.02.92-.06,1.86-.26,3.25-1.32,3.72-2.83.06-.18.1-.36.13-.53,1.43.9,3.32,1.4,5.88.79.5-.12.94-.31,1.32-.53,1.17,1.15,2.61,1.71,4.28,1.63.41-.02.8-.1,1.24-.23-.02.5.04,1.04.25,1.58.36.95,1.26,2.2,3.48,2.74,2.62.65,4.65-.93,6.13-2.08.21-.17.47-.37.72-.55.16,1.34.06,3.57,0,4.78-.07,1.4-.12,2.61-.03,3.57.27,2.89,1.85,5.07,3.25,6.99.82,1.13,1.6,2.2,2.1,3.35.54,1.26.92,2.61,1.28,3.92.83,3.01,1.69,6.12,4.65,7.62,2.23,1.13,5.05.99,8.86-.46,5.63-2.14,14.53-9.87,15.67-17.13.63-4.01-.92-12.48-1.88-15.72ZM330.07,208.72c-.07.25-.21.7-.28.77-.45.41-1.26.54-1.97.48.85-.76,1.71-1.51,2.58-2.25-.14.36-.24.7-.33,1ZM372.77,180.21c-.4,5.34-.69,5.41-4.27,6.2-1.31.29-2.94.65-4.84,1.31-4.57,1.59-5.89,3.64-7.18,5.63-.55.85-1.07,1.66-1.96,2.56-1.49,1.51-8.85,4.79-15.09,7.09-.41.15-1.18.29-1.92.43-.91.17-1.91.36-2.88.67,2.88-2.52,5.71-5.21,8.09-8.39.38-.5.86-1.36,1.61-2.71.1-.18.19-.35.29-.52.85.05,1.89.1,2.9-.19,2.8-.81,11.29-14.61,11.37-14.75.5-.89,1.3-2.73,2.45-5.45.38-.89.85-2.01,1.18-2.75.48-.07,1.13-.13,1.62-.18,2.61-.25,5.58-.52,7.01-2.74,1.03-1.59,1.15-2.92.96-3.92.06-.02.11-.05.16-.08.02,2.38.17,4.81.32,7.17.23,3.74.45,7.28.2,10.61ZM467.06,201.93c-2.81.35-5.87.72-8.63,1.48,3.08-1.61,6.2-2.97,8.15-2.97.21,0,.4.02.58.05.36.2.85.7,1.29,1.27-.45.06-.92.12-1.39.17ZM500.59,193.13c-.1-.15-.19-.32-.26-.5l.17-.08c.08.17.1.37.09.57Z"/>
        <path class="cls-1" d="M941.95,254.41c-.19-3.15-2.22-15.49-3.99-18.7-.17-.31-.52-.95-4.54-4.45-6.58-5.73-13.67-8.2-20.53-10.58-3.45-1.2-7.02-2.44-10.55-4.1-2.76-1.3-5.32-2.73-7.8-4.12-7.52-4.22-14.62-8.2-25.52-7.52-1.89.12-3.87.65-5.79,1.16-2.71.73-5.5,1.47-7.33.79.02-.02.04-.04.05-.07.45-.56.96-1.2,1.32-1.97,3.2-6.81-2.72-20.51-5.13-24.47-9.05-14.9-32.39-25.59-50.94-23.33-3.4.41-7.51,3.56-11.49,6.6-1.64,1.26-3.2,2.44-4.31,3.11-.9.54-1.94,1.02-3.04,1.52-1.4.64-2.85,1.31-4.2,2.19-5.26,3.44-12.6,12.93-17.45,19.21l-1.61,2.07c-6.52,8.35-6.72,17.6-6.92,26.55-.05,2.3-.1,4.67-.26,6.99-.84,12.07-8.24,14.97-18.47,19-2.53.99-5.14,2.02-7.75,3.25-3.35,1.57-6.38,3.37-9.32,5.11-8.63,5.11-15.43,9.15-25.92,5.71-5.03-1.65-8.77-7.23-8.33-12.45.07-.78.32-1.7.59-2.67.42-1.53.9-3.28.84-5.16-.06-1.66-.54-3.27-1-4.81-.39-1.27-.78-2.59-.78-3.57,0-2.04.95-3.98,2.05-6.23.9-1.84,1.83-3.75,2.33-5.94.81-3.54,1.14-6.64,1.43-9.39.57-5.35,1.02-9.58,4.43-15.58.61-1.07,1.29-2.07,1.96-3.04,2.25-3.27,4.94-7.19,1.89-12.25,1.66-.46,3.4-1.28,5.05-3.26,4.44-5.34,6.44-11.78,8.36-18.02,1.93-6.24,3.75-12.14,7.85-16.9,1.68-1.95,3.74-3.76,5.93-5.68,3.19-2.8,6.5-5.7,8.8-9.29.58-.89,1.04-1.89,1.5-2.85.68-1.45,1.45-3.09,2.3-3.56,1.42-.79,4.16.26,6.37,1.11,2.8,1.08,5.45,2.1,7.79.68,2.61-1.6,6-11.94,6.1-13.63.13-2.31-2.92-14.25-3.44-15.71-.69-1.94-1.94-3.34-2.77-4.26-.04-.05-.08-.09-.12-.13.01-.21.03-.45.04-.7.1-1.67.17-3.03.03-4.05-.63-4.4-3.95-9.27-8.27-12.13-3.4-2.26-7.07-3.02-10.31-2.16-3.5.93-5.01,3.83-6.12,5.95-.48.91-.93,1.77-1.44,2.36-.12.15-.54.45-.84.67-1,.74-2.37,1.76-3.06,3.44-.94,2.29-.52,4.13-.25,5.34.1.44.18.8.19,1.11-.44.2-1.38.39-1.98.51-.86.17-1.75.35-2.58.68-4.63,1.83-17.05,15.61-19.29,18.74-3.14,4.39-13.63,19.5-17.06,29.66-.61,1.83-.99,3.87-1.35,5.84-.36,1.97-.74,4.01-1.29,5.28-.37.85-1.75,2.48-2.85,3.79-1.25,1.48-2.54,3.01-3.42,4.47-7.21,12.04-11.75,33.71-13.58,49.98l-.1.84c-.98,8.7-2.33,20.6-.45,28.8.2.88.55,1.69.86,2.4.22.51.56,1.28.55,1.57,0,.44-.42,1.75-.69,2.63-.47,1.47-.99,3.14-1.12,4.71-.46,5.58,1.13,12.51,2.65,19.22.79,3.48,1.54,6.77,1.94,9.6.2,1.45.25,2.99.3,4.63.05,1.51.1,3.08.28,4.59,1.12,9.16,6.37,11.44,11.01,13.45,2.04.89,4.16,1.8,6.09,3.34.02.04.05.09.07.13.39.68,1.22,2.11,3.05,2.65,2.12.62,4.62.32,7.05.02,1.52-.19,3.1-.38,4.21-.28.98.09,2.1.44,3.28.8,1.59.49,3.39,1.04,5.34,1.11.26,0,.51.01.77.01,4.9,0,8.08-1.8,11.15-3.53,1.21-.69,2.47-1.4,3.85-2,1.21-.53,2.53-.96,3.93-1.41,1.54-.5,3.14-1.02,4.71-1.72.73-.32,1.46-.85,2.17-1.35.26-.19.62-.45.86-.6.22.01.56.05.82.08,1.13.12,2.68.29,4.32-.14,2.21-.57,14.52-7,16.26-8.35,2.59-2.01,2.28-4.5,1.87-6.02.15.01.3.02.44.03,3.13.23,5.29.33,6.87-.43,2.01-.97,2.65-3.03,3.08-4.4.07-.21.15-.47.23-.7.04.02.08.03.13.05.12.12.32.39.47.6.43.58.97,1.31,1.78,1.94,4.33,3.36,14.94,4.02,19.7,2.8,2.77-.7,4.61-2.18,5.95-3.25.66-.52,1.27-1.02,1.68-1.16,2.11-.73,3.84-1.08,5.51-1.41,3.15-.63,6.4-1.28,11.24-4.35.86-.54,1.71-1.23,2.6-1.95,1.31-1.05,3.47-2.77,4.39-2.69.22.05.8.36,1.19.56,1.41.75,3.35,1.77,5.57,1.16,1.03-.28,1.79-1,2.76-1.93.34-.32.9-.85,1.11-.99,2.24-1.4,5.89-2.2,9.42-2.97,3.24-.71,6.59-1.45,9.31-2.72,2.21-1.03,3.53-2.34,4.58-3.39,1.48-1.48,2.3-2.3,5.63-2.39.15-.04.51.08.81.16.65.16,1.44.35,2.43.34,1.03-.03,2.38-.38,4.16-.87.2-.06.42-.12.65-.18,1.05,1,2.99,2.49,5.98,1.94.54-.1,1-.27,1.4-.5.02,1.52.36,3.03,1.5,4.22,1.26,1.31,10.47,5.21,11.78,5.45,1.04.19,2.03.26,2.99.27.02.73.18,1.46.54,2.17,1.14,2.22,3.49,2.74,5.38,3.16.73.16,1.48.33,2.15.57,2.09.76,3.87,1.48,5.08,2.03-.67,2.52.96,4.23,2.14,5.11,2.08,1.54,12.73,5.77,15.1,6.28,6.52,1.38,12.32.09,16.75-3.73,5.73-4.94,8.92-14.19,8.32-24.13ZM792.54,218.72c-1.67,1.59-3.23,2.36-4.74,2.36-.21,0-.42-.02-.63-.05-2.71-.39-4.55-2.64-4.28-5.22.2-1.9,1.66-3.39,8.65-8.85,1-.78,1.82-1.41,2.21-1.75l4.35-3.85.51,5.79c.31,3.46-3.4,9.04-6.08,11.57Z"/>
        <path class="cls-1" d="M591.09,33.51c-1,1.74-2.78,2.65-4.36,3.45-1.04.53-2.34,1.18-2.57,1.75-.3.76.03,2.16.36,3.52.67,2.81,1.78,7.53-2.9,10.84-2.31,1.63-6.52,2.46-10.59,3.26-1.69.33-3.27.64-4.36.95-1.9.55-3.88,1.1-5.88,1.66-5.63,1.57-11.44,3.19-16.55,4.88-2.33.77-4.26,2.15-6.14,3.48-1.79,1.28-3.48,2.48-5.47,3.17-1.51.53-3.11.75-4.66.97-1.21.17-2.36.33-3.38.61-2.9.81-7.98,2.76-13.37,4.83-14.35,5.5-25.31,9.5-31.37,9.5-.74,0-1.41-.06-2-.18-1.05-.22-1.91-.73-2.6-1.15-.29-.17-.68-.4-.85-.46-1.55-.49-2.39-.4-3.78-.25-.89.1-1.9.21-3.18.17-6.82-.2-11.93-3.41-14.04-8.81-2.01-5.15-2.69-19.78-.65-24.71,2.25-5.44,7.13-5.64,10.04-5.76,1.2-.05,2.55-.11,3.05-.48.02-.05.04-.1.06-.16.31-.75.88-2.14,2.58-3.11,1.64-.93,3.23-.9,4.28-.88.31,0,.74.01.87-.02.8-.37,3.25-2.33,5.04-3.77,2.12-1.7,4.3-3.46,5.94-4.45,5.39-3.27,10.38-4.9,15.2-6.49,3.36-1.1,6.54-2.14,9.77-3.69.5-.24,1.02-.69,1.57-1.16.88-.76,1.89-1.63,3.28-2.06,1.94-.6,3.76-.58,5.53-.57,1.71.02,3.32.03,4.94-.55.35-.12,1.12-.61,1.68-.96,1.03-.65,1.91-1.21,2.85-1.44,1.04-.26,1.99-.28,2.84-.3.79-.02,1.47-.04,2.18-.23.86-.24,1.86-.86,2.91-1.52,1.13-.71,2.3-1.44,3.65-1.94,1.35-.5,2.67-.84,3.94-1.16,1.47-.37,2.85-.73,4.23-1.31,2.13-.9,4.27-2.2,6.53-3.57,7.49-4.56,16.81-10.24,26.2,1.82,2.41,3.1,2.63,4.61,2.78,6.83.05.67.09,1.37.26,2.33.21,1.21,1.62,3.21,2.86,4.98,2.51,3.58,5.64,8.04,3.29,12.15Z"/>
      </g>
      <path class="cls-1" d="M1155.8,514.89c-.19-.45-.41-.96-.67-1.6-.94-2.35-1.81-4.64-2.66-6.89-3.72-9.82-7.23-19.09-14.71-28.16-2.25-2.73-4.67-5.95-7.01-9.07-3.42-4.56-6.96-9.27-10.27-12.86-1.57-1.71-3.33-3.01-5.04-4.27-1.76-1.3-3.42-2.53-4.69-4.08-4.25-5.19-4.14-8.83-3.96-14.33.07-2.21.15-4.7-.07-7.53-.19-2.44-1.15-6.27-2.52-9.98-1.38-3.71-3.17-7.3-5.05-9.25-.07-.07-7.65-6.79-11.5-6.22-2.08.3-4.64,1.86-7.8,11.12-.71,2.07-1.2,4.16-1.68,6.19-.65,2.75-1.26,5.35-2.34,7.72-3.06,6.69-10.06,13.93-16.24,20.33-2.95,3.06-5.74,5.95-8.09,8.72-1.13,1.33-2.17,2.88-3.18,4.38-1.26,1.86-2.56,3.79-3.86,5.05-1.09,1.04-2.72,1.93-4.44,2.88-1.4.77-2.85,1.56-4.17,2.53-1.74,1.27-3.14,2.59-4.49,3.86-2.15,2.03-4.01,3.78-6.88,5.02-3.7,1.6-5.01,1.71-5.36,1.71-.06,0-.08,0-.1,0-.28-.26-.74-1.51-1.08-2.42-.55-1.46-1.22-3.28-2.37-5.31-3.29-5.78-9.48-13.23-16.1-15.18-4.48-1.32-6.58.55-8.12,1.91-.56.49-1.04.92-1.68,1.26-.34.18-1.38.47-2.08.66-1.73.48-2.98.83-3.84,1.7-1.21,1.22-1.29,2.77-1.35,3.8,0,.07,0,.16-.01.25-2.13,1.43-4.47,2.71-6.94,4.07-2.94,1.62-5.98,3.29-8.67,5.25-1.94,1.41-3.56,3.06-5.13,4.66-1.12,1.14-2.18,2.22-3.3,3.16-2.18,1.83-4.49,3.65-6.72,5.41-4.1,3.23-8.33,6.57-12.17,10.28-.67.65-1.35,1.48-2.14,2.44-1.35,1.66-4.08,4.98-5.37,4.63-.44-1.07-.82-4.04-1.03-5.69-.2-1.55-.37-2.9-.62-3.89-1.86-7.48-8.64-20.28-17.86-25.34-4.06-2.23-8.28-2.71-12.21-1.4-3.85,1.28-15.14,9.47-17.5,12.69-7.58,10.32-16.8,17.89-26.56,25.91-2.65,2.18-5.33,4.38-8.01,6.66-.92.79-1.74,1.63-2.53,2.46-1.22,1.26-2.37,2.46-3.68,3.17-.84.46-1.92.8-3.06,1.17-1.58.51-3.36,1.09-4.96,2.1.7-2.1,1.38-4.39,1.21-6.38-.27-4.14.16-9.1.61-14.35,1.22-14.2,2.61-30.29-9.04-39.19-3.2-2.44-7.37-3.16-10.62-1.83-2.76,1.13-4.6,3.63-5.06,6.84l-.27,1.93c-1.25,9.05-2.55,18.38-7.02,25.9-.03-.28-.07-.57-.09-.89-.12-1.63-.09-3.13-.06-4.72.06-2.81.11-5.71-.7-9.14-1.48-6.25-5.45-17.15-15.37-19.87-2.92-.8-11.44-1.5-14.97-.33-4.55,1.52-5.76,5.03-6.56,7.35-.27.78-.57,1.66-.86,1.98-.39.16-1.41.37-2.1.5-1.19.24-2.42.48-3.49.93-4.63,1.94-10.54,8.19-15.76,13.7-1.78,1.88-3.46,3.66-4.72,4.85-1.37,1.29-3.13,2.47-4.98,3.7-3.26,2.17-6.63,4.41-8.62,7.82-1.2,2.04-2.35,4.11-3.51,6.19-2.13,3.83-4.34,7.79-6.8,11.44-2.93,4.37-7.16,7.15-11.63,10.1-3.69,2.44-7.51,4.96-10.87,8.52-.69.73-1.16,1.49-1.58,2.16-.41.66-.73,1.18-1.15,1.5-2.29,1.76-7.09,3.91-11.32,5.82-2.64,1.18-5.13,2.3-7.05,3.33-1,.54-2.38,1.42-3.98,2.43-2.09,1.33-5.98,3.81-7.07,4.04-1.59.23-2.72-.5-4.72-1.95-.69-.5-1.39-1-2.12-1.45l-12.58-6.45c5.01-1.31,6.51-4.28,7.96-7.17.59-1.17,1.2-2.38,2.11-3.62,1.65-2.22,3.48-4.04,5.42-5.96,3.52-3.48,7.16-7.09,9.48-13.09,2.54-6.6,1.91-10.1,1.12-14.53-.22-1.25-.46-2.55-.66-4.08-.18-1.43-.32-2.74-.44-3.95-.77-7.53-1.28-12.51-10.66-18.45-7.4-4.69-13.6-4-19.6-3.34-2.54.28-5.16.57-8,.48l-23.17-2.73-.35.04c-3.03.38-3.91,2.81-4.28,3.85-.05.14-.12.34-.18.47-.68.21-2.64-.14-3.72-.33-1.28-.22-2.61-.49-3.81-.42-8.19.21-13.04,4.98-13.3,13.1-.05,1.48.22,3.05.48,4.56.18,1.07.37,2.17.38,2.94,0,1.18-.24,2.74-.47,4.24-.24,1.52-.48,3.09-.53,4.55-.19,6.32.71,13.39,8.8,17.92l.69.39h.79c1.38-.03,2.23-.76,2.77-1.64,0,.04.01.07.01.11-.24,1.15-2.41,2.36-4.51,3.54-2.91,1.63-6.22,3.48-7.98,6.8-4.91,9.24-4.42,21.15-3.99,31.67.07,1.65.13,3.24.17,4.77.02.87-.08,1.74-.2,2.66-.34,2.71-.81,6.43,3.27,9.47,2.57,1.91,13.47,7.34,17.12,7.83,1.26.16,2.5.09,3.7.02.98-.06,2-.11,2.56-.02.12.05.42.25.65.4.6.41,1.38.93,2.4,1.25-8.83,5.48-17.95,10.5-26.58,15.19-5.24,2.85-8.5,6.17-11.65,9.39-1.69,1.73-3.44,3.51-5.52,5.25-4.12,3.45-8.78,6.45-13.28,9.36-8.93,5.76-18.17,11.72-24.55,21.7-4.26,6.66-9.61,17.39-11.96,26.34-3.47,13.18-5.4,44.86,1.87,57.04.68,1.14,1.92,2.48,3.61,4.24.3.31.66.69.96,1.01-.11.47-.22,1.08-.17,1.77.23,3.42,6.37,7.65,6.44,7.68,1.23.73,2.22,1.28,3.13,1.79,2.05,1.15,3.54,1.98,6.21,3.96,3.79,2.8,7.7,3.79,11.59,3.79,3.48,0,6.94-.79,10.31-1.78,6.88-2.02,27.42-10.89,33.18-15.61.66-.54,1.06-1.13,1.38-1.59.34-.49.46-.66.77-.82.56-.29,1.08-.29,2.14-.28,1.4.02,3.32.05,5.47-1.14,2.27-1.26,3.26-3.28,4.05-4.91.32-.66.62-1.27.95-1.72,2.02-2.72,5.47-3.84,9.47-5.13,2.73-.89,5.56-1.8,8.15-3.35,4.01-2.4,6.32-5.19,8.55-7.89,1.33-1.61,2.58-3.12,4.2-4.58,1.41-1.27,2.74-2.18,4.03-3.06,2.9-1.98,5.91-4.02,8.29-9.33.35-.77.56-1.6.77-2.41.12-.46.31-1.19.46-1.54.28-.11.83-.25,1.21-.33.72-.17,1.54-.37,2.33-.73,3.58-1.66,4.61-4.05,5.44-5.96.35-.81.66-1.52,1.15-2.2.48-.67,1.34-1.33,2.25-2.04.98-.76,2.09-1.62,3.02-2.71,3.39-3.98,4.2-7.55,4.98-11,.37-1.61.71-3.13,1.32-4.77.61-1.64,1.72-3.45,2.9-5.37,1.33-2.17,2.71-4.41,3.64-6.83,1.05-2.75,1.45-5.39,1.79-7.72.29-1.92.56-3.73,1.15-5.4.59-1.66,1.29-2.99,2.03-4.4,1.45-2.76,2.96-5.61,3.3-10.45.2-2.76-.27-5.69-.73-8.53-.97-6.04-1.35-9.86,1.68-11.97.67-.47,2.01-.95,3.19-1.37,1.97-.7,3.82-1.37,4.98-2.64,1.55-1.7,1.64-3.75,1.69-5.11.01-.23.02-.52.04-.75.2-.03.5-.06.95-.05.74.02,4.01.33,5.92.57.07.39.12.83.17,1.27.09.82.2,1.74.45,2.67.62,2.38,5.16,12.18,7.45,14.3,3.24,3,6.54,2.8,8.95,2.66.55-.03,1.07-.05,1.53-.06.55,1.14,1.65,2.74,3.92,3.03,2.22.28,12.04-2.17,12.14-2.19,11.54-3.03,21.21-12.74,29.74-21.31,2.19-2.2,4.25-4.27,6.28-6.16.71-.66,1.68-1.33,2.71-2.04,1.2-.83,2.44-1.68,3.46-2.67,1.59-1.54,2.89-3.4,4.15-5.19,1.93-2.75,3.74-5.34,6.26-6.46.27-.12.87-.25,1.35-.35.99-.21,2.01-.43,2.9-.98.76-.47,1.32-1.15,1.9-1.88.38,1.06.31,1.84.18,3.12-.07.74-.15,1.57-.15,2.56,0,.84-.03,1.99-.06,3.33-.2,8.69-.23,16.13,1.45,19.18,2.64,4.78,7.06,4.15,9.19,3.84.2-.03.45-.07.67-.09.41.92,1.09,2.4,2.79,2.99,6.17,2.13,19.11-6.02,21.53-11.2.5-1.07.78-2.23,1.06-3.34.2-.82.39-1.6.64-2.21,1.92-4.77,8.08-10.14,13.51-14.87,2.08-1.81,4.04-3.52,5.68-5.12,2.3-2.24,4.62-4.71,6.86-7.1,4.63-4.93,9.42-10.03,14.48-13.68,1.02-.74,2.3-1.44,3.65-2.19,3.51-1.94,7.49-4.13,9.3-8.13.35-.77.52-1.66.68-2.46.02-.12.05-.23.07-.35.26-.15.55-.32.87-.51,1.73-1.02,2.92-1.73,3.6-2.29,3.29-2.71,6.45-6.85,8.68-11.37.33-.67.6-1.49.88-2.36.07-.21.16-.48.26-.76.64,2.2,1.3,5.18,1.7,6.94.49,2.17.87,3.87,1.2,4.84.45,1.29,1.12,2.42,1.7,3.42.42.71.82,1.39,1.01,1.91.28.77.43,1.74.59,2.77.17,1.07.34,2.18.68,3.29.3.96.86,1.77,1.28,2.37-.11.32-.25.7-.37,1.02-.63,1.69-1.34,3.61-1.32,5.41.03,2.38.91,4.45,1.63,6.12.3.71.72,1.69.74,2.05.03.41-.17,1.29-.35,2.07-.32,1.39-.71,3.11-.59,4.97.37,5.5,3.06,9.77,7.59,12.03,5.15,2.58,11.99,1.96,17.41-1.56,5.09-3.31,8.16-10.45,11.14-17.35,1.65-3.83,3.21-7.44,4.94-10.04,1.51-2.25,3.25-3.97,5.09-5.79,1.18-1.17,2.4-2.37,3.62-3.77,1.52-1.75,3-3.92,4.58-6.21,2.36-3.43,5.02-7.32,7.39-8.92.8-.55,1.88-.87,3.01-1.22,1.35-.41,2.75-.83,4-1.71,1.6-1.12,2.58-2.91,3.45-4.49.42-.76.81-1.49,1.19-1.99,5.1-6.65,8.37-6.03,10.65-4.74,2.15,1.22,2.59,2.89,3.23,5.98.32,1.55.68,3.3,1.44,5.04.6,1.36,1.41,2.55,2.2,3.71.41.61.83,1.21,1.18,1.81.3.51.54,1.13.79,1.79.82,2.12,2.2,5.66,7.07,5.67h0c1.17,0,2.31-.28,3.32-.52.7-.17,1.43-.35,1.88-.35,1.48,0,2.78.35,4.24.73,2.7.7,5.75,1.51,9.61.18,2.23-.77,3.99-2.29,5.55-3.64.93-.8,1.81-1.57,2.69-2.1.97-.58,2.38-1.08,3.75-1.56,2.03-.72,3.96-1.4,5.39-2.58,1.13-.93,2.02-2.17,2.89-3.37.69-.96,1.41-1.95,2.15-2.65,1.83-1.7,3.73-3.37,5.57-4.98,4.05-3.55,8.25-7.22,12.06-11.67,2.33-2.71,3.77-5.44,5.18-8.07,1.69-3.18,3.17-5.96,5.99-8.38.27,1.26.69,2.74,1.64,4.03.75,1.02,1.75,1.81,2.71,2.57.68.54,1.39,1.1,1.84,1.62,1.18,1.38,2.07,2.7,2.94,3.97,1.73,2.55,3.52,5.18,7.3,7.91.87.63,2.27,1.38,3.76,2.19,1.09.59,2.86,1.55,3.51,2.02.21.5.52,1.58.74,2.33.34,1.18.69,2.4,1.11,3.34.46,1.02,1.02,1.99,1.57,2.93.6,1.04,1.72,2.96,1.62,3.52,0,0-.3.47-1.87.99-2.3.77-4.87,1.22-7.59,1.7-2.42.42-4.93.86-7.33,1.56-4.12,1.2-7.98,2.98-11.7,4.7-4.4,2.03-8.56,3.95-13.14,5.01-.6.13-1.48.23-2.42.34-2.84.31-5.77.64-7.53,2.48-1.71,1.79-4.33,8.27-4.36,8.34-4.61,11.62-5.55,25.95-5.86,37.15-.03.99-.06,1.95-.09,2.89-.27,7.77-.48,13.91,3.71,17.21,3.13,2.48,7.92,2.65,15.52.57,4.8-1.32,9.17-3.79,13.39-6.17,4.47-2.53,8.68-4.91,13.29-6,1.53-.36,3.14-.56,4.85-.77,1.71-.21,3.48-.43,5.26-.83,7.96-1.78,30.14-11.44,36.57-17.04,6.92-6.03,15.74-19.96,16.73-28.88l.19-1.71c.62-5.52,1.4-12.39,1.7-17.7.25-4.32-.08-5.33-1.17-7.88ZM645.57,634.45c-.77,1.08-1.71,2.09-2.71,3.15-1.43,1.53-2.91,3.12-4.03,5.09-.73,1.29-1.54,3.32-2.48,5.67-.9,2.25-2.37,5.94-3.15,6.98-.49.24-1.6.68-2.36.98-1.31.52-2.54,1.02-3.34,1.46-3.5,1.95-9.22,5.41-12.75,7.81-1.85,1.26-3.54,2.94-5.17,4.56-1.61,1.6-3.27,3.25-5.06,4.48-.98.67-3.05,1.77-5.24,2.92-6.65,3.51-9.91,5.39-11.11,7.4-.83,1.4-.95,2.61-.83,3.5-.48-.01-.94,0-1.37.04-4.53.44-8.47,2.65-12.28,4.78-1.73.97-3.37,1.89-4.97,2.57-1.66.72-3.37,1.23-5.17,1.78-1.71.52-3.48,1.06-5.28,1.79-1.67.69-3.49,1.69-5.43,2.76-5.3,2.92-11.31,6.24-14.81,3.55-.01,0-.02-.01-.03-.02.94-1.61,1.83-3.35,2.75-5.17,2.31-4.55,4.69-9.26,8-11.63.26-.19.81-.43,1.3-.64,1.14-.5,2.43-1.07,3.4-2.16.76-.86,1.23-1.94,1.67-2.98.3-.7.61-1.43.91-1.85.99-1.23,8.46-7.63,9.67-8.37.4-.23,1.16-.41,1.91-.58,1.45-.34,3.09-.72,4.42-1.92,1.08-.97,1.63-2.34,2.22-3.78.36-.89.77-1.91,1.2-2.47,2.23-2.89,7.26-5.47,12.11-7.97,4.04-2.08,7.87-4.05,10.67-6.4.77-.65,1.37-1.45,1.84-2.09.2-.27.51-.68.57-.75.71-.49,2.31-1.16,3.72-1.74,1.54-.64,3.13-1.31,4.4-2.04,2.82-1.64,5.49-3.63,8.06-5.56,2.82-2.11,5.49-4.11,8.33-5.66,3.22-1.76,6.51-2.91,10-4.14,4.26-1.5,8.67-3.05,13.15-5.8.48-.29.99-.7,1.6-1.18.51-.4,1.47-1.17,2.27-1.66-.35,3.2-4.15,11.84-6.62,15.31ZM765.74,515.34c.64-1.41,6.06-3.39,7.7-4.98.68-.66,1.38-2.41,1.51-2.48,3.12-1.8,2.95,7.66,2.78,9.11-1.07,8.94-15.11,5.31-11.99-1.65ZM779.52,530.75c-.11.18-2.81,1.46-3.68,2.19-3.5,2.92-5.56,7.47-8.91,10.35-1.44,1.24-3.54,2.05-4.96,3.49-3.21,3.25-4.92,10.59-9.49,11.65-1.37.32-2.57,0-4.14.55-1.75.61-3.55,2.99-5.25,3.21-.59.08-8.19-1.11-8.47-1.43-1.31-1.51.63-5.47,2.24-6.22,2.23-1.03,3.38,1.35,5.44,1.62,4.13.54,2.65-3.18,3.92-4.95.5-.69,3.52-2.42,4.74-3.71,3.77-3.99,6.44-10.19,11.31-13.12,2.51-1.51,4.85-1.58,7.19-2.67,1.94-.91,3.21-3.03,5.43-3.52.74-.16,4.55.12,4.72.29.08.08.11,1.96-.07,2.27Z"/>
    </g>
  </g>
</svg>